inDegrees=yes
name=ik_S48_A01_T01
DataType=double
version=3
OpenSimVersion=4.3-2021-08-27-4bc7ad9
endheader
time	pelvis_tilt	pelvis_list	pelvis_rotation	pelvis_tx	pelvis_ty	pelvis_tz	hip_flexion_r	hip_adduction_r	hip_rotation_r	knee_angle_r	knee_angle_r_beta	ankle_angle_r	subtalar_angle_r	mtp_angle_r	hip_flexion_l	hip_adduction_l	hip_rotation_l	knee_angle_l	knee_angle_l_beta	ankle_angle_l	subtalar_angle_l	mtp_angle_l	lumbar_extension	lumbar_bending	lumbar_rotation	arm_flex_r	arm_add_r	arm_rot_r	elbow_flex_r	pro_sup_r	wrist_flex_r	wrist_dev_r	arm_flex_l	arm_add_l	arm_rot_l	elbow_flex_l	pro_sup_l	wrist_flex_l	wrist_dev_l
0	0	0	0	0	0.9399999999999999	0	0	0	0	0	0	0	0	0	0	0	0	0	0	0	0	0	0	0	0	0	0	0	0	89.99999999963507	0	0	0	0	0	0	89.99999999869995	0	0
0.02	-1.593138401077425	0.6563084474184193	-80.97842528143421	0	0.9399999999999999	0	-6.93540125015813	-4.010336595882386	-6.146189557468245	-5.472106905438072	-0.09550628252101236	0	0	0	-0.2770365445729775	-4.59389509725324	-7.1114272015685	-1.383711361786007	-0.02415031916042027	0	0	0	0	0	0	1.735121034350555	-1.735121034350555	0.3088181084176407	8.579007201087236	89.69118190936065	0	0	1.735121034350555	-1.735121034350555	0.3088181084176407	8.579007201087236	89.69118190848339	0	0
0.04	-1.603459458990332	0.6727898009372215	-81.02805600347038	0	0.9399999999999999	0	-6.897709314027821	-3.988021521584851	-6.132520994852686	-5.45769907086394	-0.09525481836961108	0	0	0	-0.2534245443762479	-4.599015605145186	-7.164733258754848	-1.318810123512905	-0.02301757886393328	0	0	0	0	0	0	1.856811379369232	-1.856811379369232	0.3312173685605339	8.935522072970475	89.66878265053415	0	0	1.856811379369232	-1.856811379369232	0.3312173685605339	8.935522072970475	89.66878264966107	0	0
0.06	-1.584985290874177	0.6687136418595701	-81.09078807303852	0	0.9399999999999999	0	-6.906914498522221	-4.016244073573663	-6.073917224315164	-5.505068827423708	-0.0960815765874472	0	0	0	-0.2855472683809678	-4.591613524980755	-7.228472126875961	-1.350942944717804	-0.02357840239191342	0	0	0	0	0	0	1.974406731377534	-1.974406731377534	0.3528239920372643	9.27560114128327	89.64717602832671	0	0	1.974406731377534	-1.974406731377534	0.3528239920372643	9.27560114128327	89.64717602745766	0	0
0.08	-1.573806025717644	0.6495397660122914	-81.1199635685438	0	0.9399999999999999	0	-6.930764077273305	-4.033180641933829	-6.080230268575356	-5.478869822062888	-0.09562431768315326	0	0	0	-0.303862877199938	-4.573287471795185	-7.231173460930558	-1.321202439994138	-0.02305933266328052	0	0	0	0	0	0	2.089581857737395	-2.089581857737395	0.3739981750547725	9.628474291118232	89.62600184655341	0	0	2.089581857737395	-2.089581857737395	0.3739981750547725	9.628474291118232	89.62600184568835	0	0
0.1	-1.561931226379873	0.6521830175091566	-81.1527062464106	0	0.9399999999999999	0	-6.930415030548852	-4.045712824292652	-6.080008833349989	-5.492575540260873	-0.0958635275920586	0	0	0	-0.3090328218001968	-4.567195334580557	-7.27188718279894	-1.313910847200998	-0.02293207036132553	0	0	0	0	0	0	2.20478103106184	-2.20478103106184	0.3951055132031435	9.964582406299304	89.60489450964423	0	0	2.20478103106184	-2.20478103106184	0.3951055132031435	9.964582406299304	89.60489450878313	0	0
0.12	-1.557265147720994	0.6687554436035362	-81.15306431157255	0	0.9399999999999999	0	-6.894714259555237	-4.065359849006806	-6.077431650585442	-5.452733643677623	-0.09516815531644182	0	0	0	-0.3159392690896907	-4.564446999219578	-7.266339245132604	-1.430089419532987	-0.02495976896878514	0	0	0	0	0	0	2.277521643196773	-2.277521643196773	0.4083599918185685	10.21133454804032	89.59164003180651	0	0	2.277521643196773	-2.277521643196773	0.4083599918185685	10.21133454804032	89.59164003094773	0	0
0.14	-1.558150003783051	0.6655732335865436	-81.16827221944304	0	0.9399999999999999	0	-6.900616861590545	-4.088565886320505	-6.048189421365687	-5.443177526461088	-0.09500136960730675	0	0	0	-0.3051219796935211	-4.578725143320785	-7.288175157063149	-1.4101912891774	-0.0246124810790891	0	0	0	0	0	0	2.332407179694012	-2.332407179694012	0.4185264501489979	10.43510060276178	89.58147357407518	0	0	2.332407179694012	-2.332407179694012	0.4185264501489979	10.43510060276178	89.58147357321826	0	0
0.16	-1.546433864138347	0.6333885158213755	-81.20031142416792	0	0.9399999999999999	0	-6.928612394154127	-4.092552212586684	-5.991041305819583	-5.459466749111139	-0.09528567017514059	0	0	0	-0.3460857490043145	-4.555092056667323	-7.312129132008717	-1.384038047287684	-0.02415602089804306	0	0	0	0	0	0	2.453095705957193	-2.453095705957193	0.4406708370174903	10.8563981840873	89.55932918850804	0	0	2.453095705957193	-2.453095705957193	0.4406708370174903	10.8563981840873	89.55932918765522	0	0
0.18	-1.547814058842691	0.5879357208595903	-81.23656944595179	0	0.9399999999999999	0	-6.977716283974043	-4.089749221455094	-5.954086468583228	-5.440080543051439	-0.09494731704992873	0	0	0	-0.3919227090230899	-4.561662873714288	-7.357522639476636	-1.3143354667872	-0.02293948137117321	0	0	0	0	0	0	2.565351529702657	-2.565351529702657	0.461189084596624	11.20642678647401	89.53881094213305	0	0	2.565351529702657	-2.565351529702657	0.461189084596624	11.20642678647401	89.53881094128418	0	0
0.2	-1.550432996865935	0.5647086930830271	-81.26534971475945	0	0.9399999999999999	0	-6.989651686154869	-4.099007872967451	-5.924239458685764	-5.439850286872506	-0.09494329832148329	0	0	0	-0.4128665681158487	-4.568129242853864	-7.37847908230887	-1.271863436058165	-0.02219820459494334	0	0	0	0	0	0	2.677081317730333	-2.677081317730334	0.4815873710459912	11.55146026261268	89.51841265688051	0	0	2.677081317730333	-2.677081317730334	0.4815873710459912	11.55146026261268	89.51841265603545	0	0
0.22	-1.543239395393574	0.5589591596671069	-81.28916692285615	0	0.9399999999999999	0	-6.990828172559807	-4.109390725197508	-5.896965309389543	-5.427907978452722	-0.09473486571926942	0	0	0	-0.521313202110819	-4.533094572106906	-7.377944916638433	-1.357933095146839	-0.02370040353210977	0	0	0	0	0	0	2.743950160314914	-2.743950160314915	0.4938128544551047	11.76731691772275	89.50618717418907	0	0	2.743950160314914	-2.743950160314915	0.4938128544551047	11.76731691772275	89.50618717334631	0	0
0.24	-1.542199482047461	0.5350884918512699	-81.31773692806651	0	0.9399999999999999	0	-7.026866866402723	-4.112520718390952	-5.914551860219738	-5.403990348964956	-0.09431742433543583	0	0	0	-0.5416683899797156	-4.525657893983681	-7.400908400318221	-1.278380383995101	-0.02231194679362393	0	0	0	0	0	0	2.855741271781514	-2.855741271781515	0.5141774815743265	12.11479901716865	89.48582254826411	0	0	2.855741271781514	-2.855741271781515	0.5141774815743265	12.11479901716865	89.48582254742517	0	0
0.26	-1.538375517509896	0.5319941485307039	-81.36288387338166	0	0.9399999999999999	0	-7.036386158026493	-4.132283566854396	-5.901118716382834	-5.411945714435629	-0.09445627165609854	0	0	0	-0.5567945410649593	-4.486741932705849	-7.362119874098029	-1.306037481731995	-0.02279465421067861	0	0	0	0	0	0	3.493345441168229	-3.493345441168229	0.629340055099794	14.12430055129453	89.37065998147726	0	0	3.493345441168229	-3.493345441168229	0.629340055099794	14.12430055129453	89.37065998065989	0	0
0.28	-1.511613539260307	0.5182097083313917	-81.40668626097523	0	0.9399999999999999	0	-7.076223466158111	-4.162965344528764	-5.924254777891974	-5.402782148255913	-0.09429633725503808	0	0	0	-0.5761344438813721	-4.443156282408429	-7.393714198786117	-1.216782109889478	-0.02123685409693484	0	0	0	0	0	0	3.600551496887046	-3.600551496887046	0.648676464430187	14.45887577442863	89.35132357327839	0	0	3.600551496887046	-3.600551496887046	0.648676464430187	14.45887577442863	89.35132357246464	0	0
0.3	-1.524182296268066	0.5259724828738858	-81.45518451178437	0	0.9399999999999999	0	-7.002336823153172	-4.20894486627735	-5.975276279994521	-5.066291269892267	-0.08842346352466472	0	0	0	-0.5234747250481695	-4.468701451777825	-7.455303184280727	-0.9600190054219216	-0.01675549252633383	0	0	0	0	0	0	3.724214119958297	-3.724214119958297	0.6711503076098848	14.90635327276549	89.32884973141672	0	0	3.724214119958297	-3.724214119958297	0.6711503076098848	14.90635327276549	89.32884973060717	0	0
0.32	-1.519333321023642	0.5007054629505712	-81.49819506468084	0	0.9399999999999999	0	-7.135879539480818	-4.212574064739013	-5.989083614671942	-5.438398432859694	-0.09491795868870144	0	0	0	-0.5983153937708416	-4.452604608533061	-7.480767860521604	-1.156101079472441	-0.02017777032265472	0	0	0	0	0	0	4.315871543046621	-4.315871543046621	0.7771986430851007	16.66965265027674	89.22280140213705	0	0	4.315871543046621	-4.315871543046621	0.7771986430851007	16.66965265027674	89.22280140134741	0	0
0.34	-1.527230942934063	0.4859278179174406	-81.57813397393269	0	0.9399999999999999	0	-7.07913191762891	-4.2503013293657	-5.996364190563774	-5.070760503918486	-0.08850146637346441	0	0	0	-0.5755787740057544	-4.472336243931523	-7.581933011450209	-0.8816977379478762	-0.01538852853457659	0	0	0	0	0	0	4.434347992139502	-4.434347992139502	0.7985506038982191	17.09857780435424	89.20144944257393	0	0	4.434347992139502	-4.434347992139502	0.7985506038982191	17.09857780435424	89.20144944178831	0	0
0.36	-1.519222654550887	0.4114495520266416	-81.70619905207228	0	0.9399999999999999	0	-7.235267423904314	-4.272999617391392	-5.916335842455572	-5.390162616418237	-0.0940760848744104	0	0	0	-0.7087933476290936	-4.466065534490396	-7.714049078643465	-1.034498925907597	-0.01805541236543243	0	0	0	0	0	0	4.440662198485382	-4.440662198485382	0.7997480187581932	17.13743962253249	89.20025202778506	0	0	4.440662198485382	-4.440662198485382	0.7997480187581932	17.13743962253249	89.20025202699954	0	0
